<?xml version='1.0' encoding='utf-8'?>
<svg xmlns="http://www.w3.org/2000/svg" width="297mm" height="210mm" style="shape-rendering:geometricPrecision; text-rendering:geometricPrecision; image-rendering:optimizeQuality; fill-rule:evenodd; clip-rule:evenodd" viewBox="0 0 297 210"> <defs> <style type="text/css">  .fil3 {fill:white} .fil2 {fill:black} .fil1 {fill:white;fill-rule:nonzero} .fil0 {fill:black;fill-rule:nonzero}  </style> </defs> <g id="Warstwa_x0020_1"> <metadata id="CorelCorpID_0Corel-Layer"/> <g id="_89215504"> <path id="_89215600" class="fil0" d="M211.293 169.737l7.7888 18.2994c0.8795,2.0659 0.834,4.3029 0.0531,6.241 -0.7816,1.9412 -2.3011,3.5866 -4.3665,4.4655l-0.2329 0.0989 -0.0137 0c-0.4132,0.1602 -0.8326,0.2835 -1.2544,0.3725 -0.0647,0.4499 -0.0298,0.9162 0.1007,1.3993l-0.1346 -0.0014c-0.2633,-0.4403 -0.4522,-0.8713 -0.5649,-1.2942 -0.7429,0.1 -1.4858,0.0956 -2.2127,-0.0068 -0.1304,0.5389 -0.1133,1.101 0.0456,1.6882l-0.1353 -0.0027c-0.3749,-0.6266 -0.5964,-1.2353 -0.6652,-1.8279 -0.4002,-0.0952 -0.7936,-0.2191 -1.1743,-0.3725 -0.1397,-0.0565 -0.2773,-0.1171 -0.4136,-0.1811 -0.2687,0.6703 -0.2975,1.3776 -0.0955,2.1237l-0.1349 -0.0018c-0.5423,-0.9052 -0.7645,-1.7741 -0.6662,-2.6108 -1.3592,-0.8553 -2.4819,-2.1158 -3.1549,-3.6969l-8.7064 -20.4543c-6.014,1.0528 -12.419,1.6222 -19.0588,1.6222l0 -0.0048c-2.7642,0 -5.4583,-0.0962 -8.073,-0.2811 -2.3787,-0.1685 -4.7184,-0.4109 -7.0085,-0.7214l-7.7454 18.1957 0 0.0004 -0.0989 0.2324c-0.8792,2.0655 -2.5243,3.5846 -4.4651,4.3662 -1.8622,0.7498 -3.9999,0.8207 -5.9969,0.0455l-0.0127 0 -0.2321 -0.0989c-0.1712,-0.0729 -0.3393,-0.1513 -0.5029,-0.2349 -1.0617,0.5742 -1.9936,1.3832 -2.8132,2.4257l-0.0891 -0.1003c0.5824,-1.1059 1.2641,-2.0477 2.0515,-2.8256 -0.5334,-0.3588 -1.0148,-0.7751 -1.4397,-1.2369 -1.1161,0.5775 -2.0908,1.4102 -2.9436,2.4951l-0.089 -0.1003c0.669,-1.2698 1.4687,-2.3229 2.4089,-3.1607 -0.3024,-0.4208 -0.5626,-0.8676 -0.7796,-1.3349 -1.0987,0.5766 -2.06,1.402 -2.9022,2.4736l-0.0891 -0.1003c0.7173,-1.3612 1.5852,-2.4736 2.6147,-3.3384 -0.5745,-1.7988 -0.5341,-3.8033 0.2598,-5.6686l6.6484 -15.6187c-3.9697,-1.2568 -7.6679,-2.7478 -11.033,-4.4363l-7.3787 17.335 0 0.0003 -0.0989 0.2325c-0.8792,2.0655 -2.5243,3.5845 -4.4652,4.3661 -1.8621,0.7498 -3.9998,0.8207 -5.9968,0.0456l-0.0127 0 -0.2321 -0.099c-0.2133,-0.0907 -0.4201,-0.1907 -0.6218,-0.2975 -1.0507,0.5731 -1.9751,1.3774 -2.7875,2.411l-0.089 -0.1004c0.5803,-1.1017 1.2609,-2.0408 2.0446,-2.8169 -0.5255,-0.3653 -0.9987,-0.7875 -1.4153,-1.2538 -1.123,0.5779 -2.1042,1.4133 -2.9612,2.5034l-0.089 -0.1003c0.6745,-1.2805 1.4835,-2.3408 2.4342,-3.182 -0.2937,-0.4221 -0.5474,-0.8706 -0.7569,-1.3376 -1.1182,0.5776 -2.096,1.4109 -2.9502,2.4976l-0.089 -0.1003c0.7299,-1.3856 1.617,-2.5127 2.6708,-3.384 -0.5345,-1.7669 -0.479,-3.7229 0.2968,-5.5456l8.7468 -20.5488 0 -0.0003 0.0989 -0.2325 0.064 -0.1479c-4.0615,-4.3319 -6.5378,-9.2069 -7.0082,-14.3965 -12.3597,-0.6439 -23.4332,-4.3316 -31.4808,-9.9251 -8.3774,-5.8226 -13.5146,-13.722 -13.5146,-22.4534l-0.0048 0c0,-3.9451 1.0542,-7.7248 2.9858,-11.2234 1.8597,-3.3692 4.5322,-6.4738 7.8566,-9.2062l-12.1704 -34.8158 -1.5937 -4.559 3.5469 3.2754 28.8963 26.6837c2.8975,-0.8289 5.9469,-1.4777 9.1121,-1.9252 3.2935,-0.4652 6.7234,-0.7107 10.2497,-0.7107 3.5264,0 6.9559,0.2455 10.2491,0.7107 3.1658,0.4475 6.2149,1.0963 9.1124,1.9255l28.8973 -26.6846 3.5469 -3.2758 -1.5937 4.5593 -12.1724 34.8165c2.9022,2.3842 5.308,5.0523 7.1088,7.9319 1.6814,2.6883 2.8352,5.5641 3.3768,8.5725 1.5355,-0.1428 3.0909,-0.2544 4.6606,-0.3341 1.97,-0.1007 3.9252,-0.1524 5.8582,-0.1524 11.1936,0 21.7121,1.6143 30.8191,4.4405 9.0887,2.8204 16.7831,6.8576 22.3592,11.7144 8.6128,-6.039 14.5693,-13.3547 18.1648,-21.6755 3.9088,-9.0453 5.0431,-19.3122 3.7845,-30.4452 -0.1366,-1.211 -1.1818,-2.528 -2.1973,-3.8075 -1.6998,-2.1418 -3.336,-4.2039 -2.126,-6.7247 0.5768,-1.2021 1.8193,-2.046 3.2819,-2.5095 0.9754,-0.3089 2.0757,-0.4561 3.1364,-0.4287 1.088,0.0281 2.1487,0.2438 3.0148,0.6594 0.9987,0.479 1.7571,1.2157 2.0796,2.2329 4.9352,15.5722 5.0783,29.3808 1.2739,41.191 -3.9279,12.1937 -12.0519,22.2192 -23.4431,29.8283 0.8436,1.5016 1.5122,3.0504 1.9902,4.6363 0.5765,1.9124 0.8768,3.8745 0.8768,5.8729 0,3.3179 -0.8251,6.5279 -2.3678,9.5715 -1.4034,2.7684 -3.3994,5.3909 -5.9045,7.8241 0.1349,0.153 0.265,0.3119 0.3886,0.4752 0.3903,0.5166 0.7255,1.0908 0.9908,1.7142l8.8454 20.7813c0.8795,2.0658 0.834,4.3028 0.053,6.2409 -0.7816,1.9412 -2.301,3.5867 -4.3665,4.4655l-0.0038 0.0017c-0.2975,0.7091 -0.3348,1.4564 -0.1256,2.2494l-0.1346 -0.0028c-0.3851,-0.658 -0.6104,-1.2965 -0.6724,-1.9176 -0.6713,0.1935 -1.3523,0.2965 -2.0292,0.314 -0.2095,0.6344 -0.216,1.2993 -0.0304,1.9994l-0.1353 -0.0027c-0.4057,-0.6937 -0.6337,-1.3664 -0.6813,-2.019 -0.5502,-0.0428 -1.0928,-0.1407 -1.6194,-0.2917 -0.2252,0.6478 -0.2376,1.3294 -0.0479,2.0474l-0.1349 -0.0024c-0.4748,-0.8104 -0.7056,-1.5927 -0.6895,-2.348 -1.9135,-0.7891 -3.5325,-2.2976 -4.4025,-4.3412l-8.6406 -20.2998c-1.996,0.9589 -4.1036,1.8494 -6.3098,2.6653z"/> <path id="_89215696" class="fil1" d="M131.825 165.445c-3.5202,-1.9395 -6.6255,-4.1091 -9.2363,-6.4642 -0.1247,-0.1123 -0.2482,-0.226 -0.3705,-0.339l-8.5327 20.0458c-0.619,1.4541 -0.5862,3.032 -0.035,4.4008 0.5475,1.3585 1.6078,2.5119 3.0488,3.1333l0.026 0.011c1.4547,0.619 3.032,0.5861 4.4011,0.0349 1.364,-0.5495 2.5202,-1.6163 3.1399,-3.0652l0.0037 -0.0085 7.555 -17.7489z"/> <path id="_89219344" class="fil1" d="M197.781 173.521l8.4982 19.9653c0.619,1.4544 1.7772,2.5236 3.1436,3.0741 1.3691,0.5513 2.9467,0.5841 4.4014,-0.0349l0.0083 -0.0034c1.4495,-0.6197 2.5164,-1.7758 3.0658,-3.1405 0.5516,-1.3688 0.5845,-2.9464 -0.0345,-4.4011l-7.8484 -18.4391c-3.147,1.0589 -6.4765,1.9703 -9.9553,2.7149 -0.4242,0.0907 -0.8505,0.1791 -1.2791,0.2647z"/> <path id="_89220136" class="fil1" d="M220.34 118.303c-0.3981,1.0264 -0.7196,2.0439 -0.9644,3.0511 -0.608,2.5835 -0.7717,5.2451 -0.4591,8.0251 0.4012,3.5321 1.4249,6.5573 3.1138,9.1192 1.6838,2.5181 3.8848,4.4038 6.57,5.6131l0.0986 -0.757c-1.2024,-1.0305 -2.1898,-2.3294 -2.9604,-3.9444 -0.7755,-1.6149 -1.2688,-3.5051 -1.5109,-5.6651 -0.3201,-2.8262 -0.0876,-5.446 0.6656,-7.858 0.3125,-0.9986 0.8234,-2.1699 1.5293,-3.5109 0.7512,0.5936 1.4681,1.2003 2.147,1.821l0.7018 0.6416 0.7844 -0.5331c9.425,-6.409 15.9101,-14.2622 19.7918,-23.2452 4.0851,-9.4534 5.2769,-20.128 3.9728,-31.6626 -0.215,-1.9039 -1.479,-3.4963 -2.7067,-5.0434 -1.223,-1.541 -2.4,-3.0248 -1.8427,-4.1865 0.2602,-0.5416 0.9648,-0.9682 1.8379,-1.2448 0.7388,-0.2338 1.5639,-0.3454 2.353,-0.3252 0.7632,0.0195 1.4808,0.1585 2.0337,0.4238 0.4112,0.1972 0.7111,0.4612 0.8148,0.7888 4.7788,15.0778 4.9352,28.3927 1.2836,39.7284 -3.8595,11.9811 -11.9904,21.7943 -23.424,29.1754l-0.9997 0.645 0.6269 1.0062c1.0199,1.6365 1.8025,3.3292 2.3253,5.0629 0.5081,1.6851 0.7727,3.4175 0.7727,5.1841 0,2.9361 -0.733,5.7826 -2.1035,8.4862 -1.4362,2.8334 -3.5763,5.5227 -6.3125,8.0069l-1.0401 0.9439 1.0966 0.8867c0.355,0.2869 0.6813,0.6221 0.9668,1.0001 0.2763,0.3656 0.5126,0.7693 0.6978,1.2048l8.8453 20.7812c0.619,1.4547 0.5862,3.0323 0.0346,4.4011 -0.5495,1.3647 -1.6163,2.5209 -3.0659,3.1405l-0.0082 0.0035c-1.4547,0.619 -3.0323,0.5861 -4.4014,0.0349 -1.3664,-0.5505 -2.5246,-1.6197 -3.1436,-3.0741l-8.8457 -20.7816c-0.05,-0.1178 -0.0884,-0.2133 -0.1144,-0.2862 -0.0349,-0.0976 -0.0681,-0.1982 -0.0989,-0.2992l-0.4191 -1.3712 -1.275 0.6447c-5.5227,2.7916 -12.004,5.0334 -19.1478,6.5624 -6.8908,1.4746 -14.4002,2.2846 -22.264,2.2846l0 0.0048c-2.6496,0 -5.2885,-0.0962 -7.9032,-0.2811 -2.6423,-0.1872 -5.232,-0.4666 -7.7556,-0.8309l-0.9151 -0.1325 -0.3636 0.8546 -8.2061 19.2782 -0.0038 0.0086c-0.6197,1.4489 -1.7759,2.5157 -3.1398,3.0652 -1.3692,0.5512 -2.9464,0.5841 -4.4012,-0.0349l-0.026 -0.011c-1.441,-0.6214 -2.5013,-1.7748 -3.0487,-3.1333 -0.5512,-1.3688 -0.5841,-2.9468 0.0349,-4.4008l7.1719 -16.8488 0.5279 -1.2404 -1.2924 -0.3872c-9.3949,-2.8146 -17.2642,-6.9346 -22.7728,-11.9041 -5.2173,-4.7068 -8.2959,-10.1631 -8.4972,-15.9607l-0.0394 -1.1236 -1.1212 -0.0418c-12.319,-0.4598 -23.351,-4.0406 -31.2789,-9.5506 -7.7398,-5.3796 -12.486,-12.5871 -12.486,-20.4718l0.0048 0c0,-3.5291 0.9476,-6.9182 2.6838,-10.0628 1.8234,-3.3028 4.5195,-6.3461 7.9066,-9.0104l0.6758 -0.5316 -0.2842 -0.8132 -10.8581 -31.0617 25.85 23.8707 0.5029 0.4646 0.6577 -0.1959c2.9871,-0.8898 6.1393,-1.5796 9.4133,-2.0425 3.208,-0.4533 6.5276,-0.6923 9.9197,-0.6923 3.3922,0 6.7114,0.239 9.919,0.6923 3.2744,0.4629 6.4266,1.1527 9.414,2.0425l0.6574 0.1959 0.5033 -0.4646 25.8506 -23.8711 -10.8598 31.0621 -0.2845 0.8132 0.6761 0.5316c2.9886,2.3494 5.4378,4.9931 7.2243,7.8491 1.7194,2.7489 2.8286,5.6942 3.2155,8.7605l0.1472 1.1678 1.1692 -0.1205c1.3571,-0.1401 2.7324,-0.2554 4.1207,-0.3458l-0.0428 0.1708c-0.608,2.5835 -0.7717,5.245 -0.4591,8.0251 0.4012,3.5321 1.4249,6.5573 3.1138,9.1192 1.6838,2.5181 3.8848,4.4038 6.57,5.6131l0.0986 -0.757c-1.2024,-1.0305 -2.1898,-2.3294 -2.9604,-3.9444 -0.7755,-1.6149 -1.2688,-3.5051 -1.5109,-5.6651 -0.3201,-2.8262 -0.0876,-5.446 0.6656,-7.858 0.4187,-1.3379 1.1952,-2.9861 2.3171,-4.9359 3.145,0.0137 6.2331,0.1582 9.2459,0.4215 -0.3906,1.0113 -0.7073,2.0138 -0.9483,3.0063 -0.6081,2.5835 -0.7717,5.245 -0.4592,8.0251 0.4013,3.5321 1.425,6.5573 3.1139,9.1192 1.6837,2.5181 3.8848,4.4038 6.57,5.6131l0.0986 -0.757c-1.2024,-1.0305 -2.1898,-2.3294 -2.9605,-3.9444 -0.7754,-1.6149 -1.2688,-3.5051 -1.5108,-5.6651 -0.3202,-2.8262 -0.0877,-5.446 0.6655,-7.858 0.5303,-1.6943 1.6324,-3.8858 3.286,-6.557 4.0061,0.6567 7.8368,1.5318 11.4463,2.6003 -0.5539,1.302 -0.9856,2.5886 -1.2944,3.8602 -0.6081,2.5835 -0.7717,5.245 -0.4592,8.025 0.4013,3.5322 1.425,6.5573 3.1139,9.1193 1.6837,2.5181 3.8848,4.4038 6.57,5.613l0.0986 -0.7569c-1.2024,-1.0305 -2.1898,-2.3295 -2.9605,-3.9444 -0.7754,-1.615 -1.2688,-3.5052 -1.5108,-5.6651 -0.3201,-2.8263 -0.0877,-5.446 0.6655,-7.858 0.4879,-1.5578 1.4578,-3.537 2.8964,-5.9222 2.8249,1.137 5.4597,2.404 7.8761,3.7828z"/> <path id="_89215240" class="fil0" d="M116.426 127.253c-1.782,1.1096 -3.5788,1.9864 -5.3885,2.6458 -2.6766,1.0168 -5.4446,1.5074 -8.2746,1.5074 -6.0661,0 -11.2351,-1.9997 -15.5136,-6.0335 -4.2751,-4.0286 -6.3978,-8.9545 -6.3978,-14.7069l0 -0.5526c0.8905,4.5836 3.0142,8.2445 6.3368,10.9841 3.3528,2.7704 7.2931,4.1539 11.8774,4.1539 2.4636,0 4.8937,-0.3684 7.2944,-1.137 2.2548,-0.696 4.536,-1.7419 6.8439,-3.1662 -0.1308,-0.5402 -0.202,-1.1216 -0.202,-1.7272 0,-2.815 1.5348,-5.0985 3.424,-5.0985 1.8888,0 3.4233,2.2835 3.4233,5.0985 0,0.6056 -0.0746,1.187 -0.203,1.7272 2.3065,1.4243 4.587,2.4702 6.8428,3.1662 2.4031,0.7686 4.8322,1.137 7.2938,1.137 4.5867,0 8.5235,-1.3835 11.8794,-4.1539 3.3233,-2.7396 5.4467,-6.4005 6.3413,-10.9841l0 0.5526c0,5.7524 -2.1234,10.6783 -6.4036,14.7069 -4.2772,4.0338 -9.4486,6.0335 -15.5082,6.0335 -2.8303,0 -5.6038,-0.4906 -8.2804,-1.5074 -1.8077,-0.6594 -3.6048,-1.5362 -5.3854,-2.6458z"/> <path id="_89215576" class="fil0" d="M134.2 95.5512c2.0172,0 3.6534,2.0682 3.6534,4.6151 0,2.5486 -1.6362,4.6175 -3.6534,4.6175 -2.0169,0 -3.6517,-2.0689 -3.6517,-4.6175 0,-2.5469 1.6348,-4.6151 3.6517,-4.6151z"/> <path id="_89220496" class="fil0" d="M98.6511 95.5512c2.0159,0 3.6534,2.0682 3.6534,4.6151 0,2.5486 -1.6375,4.6175 -3.6534,4.6175 -2.0148,0 -3.652,-2.0689 -3.652,-4.6175 0,-2.5469 1.6372,-4.6151 3.652,-4.6151z"/> <path id="_89222080" class="fil0" d="M123.774 99.2327l-1.6303 -7.5721c1.8138,-1.8776 3.5993,-3.2594 5.3532,-4.155 1.7858,-0.8915 3.6318,-1.3523 5.5724,-1.3523 2.4609,0 4.5839,0.6768 6.3991,2.062 1.7865,1.3866 3.1385,3.3545 4.0334,5.8754l-0.5252 0.1845c-0.7374,-1.0764 -1.6594,-1.9063 -2.7998,-2.491 -1.1398,-0.5851 -2.4596,-0.8611 -3.9701,-0.8611 -1.9703,0 -3.7838,0.5235 -5.447,1.5389 -1.6619,1.0172 -3.9982,3.2933 -6.9857,6.7707z"/> <path id="_89215528" class="fil0" d="M109.075 99.2327l1.6307 -7.5691c-1.8149,-1.8806 -3.5993,-3.2624 -5.3539,-4.158 -1.7841,-0.8915 -3.6304,-1.3523 -5.5693,-1.3523 -2.4633,0 -4.5873,0.6768 -6.4022,2.062 -1.7823,1.3866 -3.1374,3.3545 -4.0307,5.8788l0.5245 0.1825c0.7392,-1.075 1.6615,-1.9077 2.7996,-2.4904 1.139,-0.5871 2.4626,-0.8631 3.9683,-0.8631 1.971,0 3.788,0.5235 5.4505,1.5389 1.6598,1.0172 4.0005,3.2933 6.9825,6.7707z"/> </g> <ellipse class="fil2" cx="115.421" cy="75.3896" rx="48.0941" ry="10.0827"/> <rect class="fil2" x="95.4551" y="25.7829" width="42.1455" height="55.253"/> <ellipse class="fil2" cx="116.528" cy="25.9257" rx="21.0725" ry="4.41771"/> <path class="fil3" d="M137.6 70.112l0 -5.6367c0,2.4394 -9.4366,4.4176 -21.0726,4.4176 -11.636,0 -21.0726,-1.9782 -21.0726,-4.4176l0 5.6367c0,2.4394 9.4366,4.4176 21.0726,4.4176 11.636,0 21.0726,-1.9782 21.0726,-4.4176z"/> </g> </svg>