<?xml version="1.0" encoding="UTF-8"?>
<svg viewBox="0 0 204.5 304" xmlns="http://www.w3.org/2000/svg">
 <g fill-rule="evenodd" stroke-width="0">
  <path d="m63.5 9.5q13.5-1 19 0.5t6.5 2 9.75 2.75l8.75 2.25 0.5 5.5q0.5 5.5 0.75 7t-0.75 1.5-0.25 4 0.75 10 1 10.5 0.75 4.75l-0.25 0.25 1.75 2.25q1.75 2.25 2 3.25t1.25 1 2.25 3 3.25 5.5 2.75 5.5l0.75 3 9-0.25q9-0.25 14.5 1.25t5.75 1.75l0.25 0.25 0.5 2q0.5 2 0 6t-1 4.5-0.75 1.5-6.5 3-6 2.25 1.25 0.5 1.75 1.75 3 3.25-0.75 1.75-4-1-1.5-0.5 1.25 2.25 2 2.75l0.25 1h-1q-1 0-1.75-1.5t-1.75-2.5-0.5 1 0.5 2.5-0.75 1.25-2.5-1-1.25 2.25 5.5 9.5 5.25 5.75-1.75-0.25-2.25-0.75-0.5 0.75 0.75 1 0.5 0.75-1 1.25-1.75 1.25-1.25 1.25-0.25 0.75 0.75 0.5 1 1.25-2 0.25-2.25-1-1.25-3.25l-1-3 0.5 3.5q0.5 3.5 2.5 8t3.25 6.75 0 3-1.5 1.75-4 1-3.5 3 1.75 3h1.5l0.5-2.5q0.5-2.5 2-2.5t1.75 1 0.5-1 1.5-1.5 0.75 4.5-2.25 5.25-2.75 1.75-4.5 0-4.5-1.5-2-1.25-1.75 3.75-2.25 5.5-1 5.5 2.25 5.25 4.75 2 2.5 1.5-4.5 0.25-0.75 1.25 3.5 2.75l0.25 1h-1q-1 0-1-1t-3-2.25-5-1.5-2 1.25 3 2.25 5.25 2 4.75 6.75l2.5 5.5 2.25 2.75q2.25 2.75 2.75 2.25t-0.75-2.25-3.75-7-2.75-7.75 1-2.25 2.5 2.75 2.5 3l1.25 0.5-0.5-1.5q-0.5-1.5-2.75-4.25t-0.75-2.25 3.5 3 2.75 3.25 1 2.75-3.25 1.5-2.75 1 3.25 6 2.75 5.5-2.25 0.25-4.25-2.5-2-2.75-1.25-1 0 3.75 1.25 4 1.5 2.5-0.75 1.75-5-2.25-3.75-0.25l-0.75 1.5-0.25 1q-0.25 1-1.75 1t-0.75 1.5 4.25 4.5 7 9 4.25 6.75 1.75 1 1.75 1.75 3 3.25l2.25 1.75-7.5-0.5q-7.5-0.5-10.25-3.75t-2.25-0.75 0.75 4-2.75 1.5-3.75-6.5-2.25-9-2.75 2-0.25 4.5 1.25-2 0.75-0.5l0.5 1.5-0.5 1.5q-0.5 1.5-0.5 2t1.75 3.5l1.75 3-2.25-0.5q-2.25-0.5-3.75-3t-1-0.5 0.75 3-1.25 0.75-8 0-7-1-1.5-1.5l-1-0.25 0.5 1.25q0.5 1.25-46 1.5l-46.5 0.25v-28h1q1 0 0.25-5l-0.75-5v-33l2.25-1.75q2.25-1.75 6.25-4.25t5.5-3.5 6.25-3.25 5-3.25-1.25-1.25-0.5-0.75-1-0.75-2-1.25 2.5-1.75 3.5-1.25l1-0.5-3-0.25q-3-0.25-3-1.25t2.5-1.75-1-1.25l-3.5-0.5 3-2q3-2 1.5-2.5t1.5-2 3.5-2-5-0.75l-5.5-0.25v-1q0-1 3-0.75t6-1.25 6-3.5 3.5-2.5-1 0l-1.5 0.5-4 2q-4 2-4.5 2t-1.75-0.75-1.25-1.25-0.25-0.75-3.5-1-3-1 6.5-1.5 6.5-1.5-1.25-0.75-3 0-7.5 0-6.25-0.75 0.25-4.25 1.25-7l0.75-3h1q1 0 1-1t1.5-1.75 4.25-3l2.75-2.25-0.5-5q-0.5-5-1-6t-1.5-8-1.5-7.5-1.5-3.5-1-3.5-1.25-7.5 3.25-7h4.5v-1q0-1-4.5-1t-5.25-5 0.25-17l1-12 0.25-0.25q0.25-0.25 4.75-2.25t7-3 8.5-3 10-4 17.5-3zm-63.25 211.5l0.25-5 0.5 1.5q0.5 1.5 0.75 5t-0.75 3.5h-1l0.25-5zm4-8q0.25-1 2 0.25l1.75 1.25-2-0.25q-2-0.25-1.75-1.25zm0.25 7.5q0-2.5 0.25-1.5t2.5 1.5l2.25 0.5 1 1q1 1 0.5 4.5l-0.5 3.5 0.5 3.5q0.5 3.5-0.25 2.75t-1.5 0-1-7.25-1.25-8-1.25 3-0.75 1-0.5-4.5zm6-2.5v-1l1.25 1.25 1.25 1.25-1.25-0.25q-1.25-0.25-1.25-1.25zm3.5 11.5q-1.5-4.5-0.5-3.5t1.5 2.5l0.5 1.5 0.5 1q0.5 1 0 2t-2-3.5zm-1.5 10.5v-2 4-2zm1-20zm1.5-40.5h1-2 1zm5.5-58.75q2.5-0.25-0.5 2.25t0 2.25 3 0.75-2.5 1.25-3.5-0.25l-1-0.5-0.25-0.25q-0.25-0.25 0-1.5t1.25-1.5 1-1.25 2.5-1.25zm-2 125.25q0-7 0.5-3l0.5 4-0.5 3q-0.5 3-0.5-4zm6.5-132.5h1l-1.75 1.75q-1.75 1.75-1.25 0.25t0.75-1.75 1.25-0.25zm-1.5 118.5q-1-4 0-2.5l1 1.5 0.5 1.5q0.5 1.5 0 2.5t-1.5-3zm3.5-195.5q1 0-0.5 1t-2.5 1h-1l1.5-1q1.5-1 2.5-1zm27.5-9q2.5 0-4 3t0 2.5l6.5-0.5-2 1q-2 1-7.5 2t-13 3.5-9.5 3l-2 0.5 2-1.5q2-1.5 10-4.25t8-3.75v-1l-7.5 1.75q-7.5 1.75-6 0.75t5-2.5 10.5-3 9.5-1.5zm-28.25-4.5l2.25-1 0.25 1q0.25 1-2 2t-2.5 0 2-2zm29.75 16q4-0.5 1.5 0.5l-2.5 1-2.5 1.5q-2.5 1.5-5 1.75t-2.5 1.25-1.5 1.75-5 1.75-7.5 2.75-4 0.75 1.5-1.75-0.5-0.25-3 0.75-1-0.75 1.5-1.75 3-1.75l1.5-1 3.5-1q3.5-1 9.5-2t7.5-2 5.5-1.5zm-10.5 67l2.5-0.5-0.5 0.5q-0.5 0.5-5 2.5t-4.25 2.25 0 1.5-7 4.5-6.5 2l0.25-1.25 2.5-1.5q2.5-1.5 4.5-2t-0.5-1 4.5-3.5 9.5-3.5zm-16.5 29.5q2 0-1 1t-3.5 0.5l-0.5-0.5 1.5-0.5q1.5-0.5 3.5-0.5zm11.75-86.25q2.75-1.25 2.25 0.25t-1.75 2.25-4.75 2.75-7.25 2.75-1-1.5 5-3.5l2.25-1.25 0.75-0.25q0.75-0.25 1.25-0.25t3.25-1.25zm-14.75 179q1-0.25 1.75 2.75t1.25 4l0.5 1 0.25 1.5q0.25 1.5 1.25 1.5t1.75 4l0.75 4-0.5 1q-0.5 1-1.25-1.75t-1.75-3-2.25-4.75-2-7.25 0.25-3zm24-177.75q1 0 0.75 0.25l-0.25 0.25-1.25 0.75q-1.25 0.75-3.75 1.75t-1 1.5-1 1 0.5 1 3.25 0.25 0.5-1.25 3-1 1 1.25-2.75 1.75 2 2 0.5 2.25-2 1.75 4.5 0.25l4-0.75 0.25-0.25q0.25-0.25 0.5 0.75t-3.25 2.25-4.75 2-1 2 2.75 0.75 3.5-0.75 1 0.75-3 2.25-6 2.25-7 2-4.5 0.75-0.5-1.25 3-2.25 5.5-2 2.5-1.75v-1l-5 1.75q-5 1.75-9 3.25t-4.5 1 1.5-2 6.5-4 5.5-3-2.5 0-8.5 2.5l-5 2 2-1.5q2-1.5 8-4.5t1-2.5-6 1-2 0 2-2 6-3 1-2 4.5-3.5 7.5-3zm-23.5 172.5q0-1 1.5 1t3 5 1 3.5-0.75-0.5-1.25-1-1.25-2l-0.25-2-1-1.5q-1-1.5-1-2.5zm0 19v-2l0.25 2.25q0.25 2.25 0 2t-0.25-2.25zm10.5-80.5q1 0-1 1.5l-2 1.5-1.5 0.5q-1.5 0.5-2.5 0t2.5-2 4.5-1.5zm-9.5 88v-1.5l0.5 1q0.5 1 0 1.5t-0.5-1zm1.5-218h1-2 1zm5 68h1l-2 1.5q-2 1.5-3 1.5h-1l2-1.5q2-1.5 3-1.5zm-1.75 59.25l3.25-1.75-0.25 1.25q-0.25 1.25-3.25 1.75t0.25-1.25zm-0.75-128.25h1.5-3 1.5zm9.25 7.75q3.75-1.25 4.25 0.25t0.25 1.75-4.75 1.25-6.5 0.5 0.5-1.5l2.5-1 3.75-1.25zm-10.25 160.75q0-1 1.5 0.5t1.5 2.5v1l-1.5-1.5q-1.5-1.5-1.5-2.5zm28-184.5h1.5l-3.5 1.25q-3.5 1.25-3.5 2.25t-5 1.75-7.5 1.25-4.5 0 0-1l2-0.5 4.5-1q4.5-1 9.5-2.5t6.5-1.5zm8.5 68.5l4-0.5-0.5 0.5q-0.5 0.5-9 3t-13 4.5-7 3-5.5 2-1.5-1 4.5-3.5-1.5-1l-4.5 0.5 3-1.5q3-1.5 8.5-3.5t6.5-1.5-0.5 1.5-3.5 2l-2 1 2.5-0.5q2.5-0.5 9-2.5t10.5-2.5zm-9.5 6.5q2.5 0 3.5 0.5t0 1-6 1.5-5.5 1.5-5.5 2.5-3.5 2.5 0 1.5l-1.5 1 3.5-0.5q3.5-0.5 9.5-2t11.5-1 6.5 1l1 0.5h-3q-3 0-3.5 0t-4 0.5-11 2-10 2.5-4.25 0.75-1.25-1.75 2-2.5 1.25-1.75-0.75-1.25 3-2 6.75-2.75 3.5-1.5 2.75-1.25l2.5-1h2.5zm-10.5-65.5q5-1.5 2.5 0.5t-3.5 2.5-6.25 1.25-5 0.5 3.75-1.75l3.5-1.5 5-1.5zm7.5 51.5h1.5l-0.5 0.5q-0.5 0.5-4 2t0.5 1 1.5 1-11 3.5l-8.5 2 1.5-1q1.5-1 4-2t-0.25-0.75-3-0.75 4.25-1.25 5.5 0 1-0.75 3-2.25 4.5-1.25zm-13.25 88.75q0.25-0.25-0.25 1.25t-1.75 2.25-1.75 0.25 1.5-2l2-1.5 0.25-0.25zm-5.75 42.25q0-1.5 1 0t1 2.5v1l-1-1q-1-1-1-2.5zm3.25-46.75q0.75-0.75 1 0.25t-0.75 0.75l-1-0.25 0.75-0.75zm0.25 49.75q0.5-1.5 1.5 2t2 11 0.5 8l-0.5 0.5-1.5-8-1.5-8-0.5-2q-0.5-2 0-3.5zm12-52.5q0.5-1 1 0t-1.5 4-4.75 5.25-3.25 1.75 0.75-1.75 1.5-2.25 1.5-1.5l1.25-0.5 1.5-2q1.5-2 2-3zm-8.5 25v-1 2-1zm1-33zm0.5 89.5q-0.5-6.5 0.5-4.5l1 2-0.5 4.5q-0.5 4.5-1-2zm6.5-124.25q2.5-0.75 0.75 1.5l-1.75 2.25-1.75 2.25q-1.75 2.25-2.5 2t1-3.75 4.25-4.25zm-3.5 26.25l1.5-1.5-0.5 1.5q-0.5 1.5-2 3l-1.5 1.5 0.5-1.5q0.5-1.5 2-3zm7.5-45.25q1.5-0.25 1.5 0.75t-5.5 1.25-1.5-0.75l4-1 1.5-0.25zm-7.5 50.25h1l-1.25 1.25-1.25 1.25 0.25-1.25q0.25-1.25 1.25-1.25zm-0.75 4.75l1.25-1.25-0.25 1.25q-0.25 1.25-1.25 1.25h-1l1.25-1.25zm5.75-19.25q0-1 2-1h2v1q0 1-2.5 1.75t-3 1.25-1.5 0.75l-1 0.25v-1q0-1 2-1.5t2-1.5zm-2 9.5l0.5-0.5-0.5 2q-0.5 2-1 2.5l-0.5 0.5 0.5-2q0.5-2 1-2.5zm-0.5 49q0-1.5 1 0t3.25 5.25 1.25 4-1.5-1l-0.5-1.25-0.75-1.25q-0.75-1.25-1.75-2.75t-1-3zm3.5-21q1 0 5 3.5t3.25 4.25 1.25 3.25 3.75 5.5 3.25 3 2.25 1.5 2.25 3.5 1.75 2.25 1.25 0.5 2 5.75 0 5.5-1-1-1-1-1.75-1.5l-0.75-1.5-3.5-6q-3.5-6-5.5-9.5t-2.25-4.5-1.75-1-2.75-3-1.5-3.25l-0.25-0.25-2-2.5q-2-2.5-2.5-3t0.5-0.5zm1 20.5q-1.5-4-1.25-3.75l0.25 0.25 2.25 2.75q2.25 2.75 4 5.75t2.75 3 1.75 2.5 2.75 5 2.25 4 1 2 0.75 2.25-0.25 2.25-1.75 1-3.25-1.75l-1.75-2.25-2-5q-2-5-4-9.5t-3.5-8.5zm-0.25-55.25q0.75-0.75 1 0.25t-0.75 0.75l-1-0.25 0.75-0.75zm5.25-114.25h4-8 4zm-3.5 126.5q0-2 2 0.5t3 5 1.5 3 0 2.5-2 0-2-3l-0.5-1-1-2.5q-1-2.5-1-4.5zm0 38q0-1 1.5 0t4 5 4.75 6.75 3.25 3.25 0.25 1.25 1 4l1.75 3.25-1 0.25q-1 0.25-1.75-1.25t-3.75-6.5-4.5-7-2.5-4l-1-2-1-1q-1-1-1-2zm3.5-79.5h3l-1 0.5q-1 0.5-3 0t1-0.5zm-2.75 133.5q-0.25-2 0.75-2t0.25 2l-0.75 2-0.25-2zm2.75-76.5h1-2 1zm2.5 80.5v-1l1.25 1.25 1.25 1.25-1.25-0.25q-1.25-0.25-1.25-1.25zm0.75-103l-0.25-1 1.5 0.75q1.5 0.75 3 2.25t-0.5 1-2.75-1.25-1-1.75zm2.75 23.25q1-0.25 1.25 1.25l0.25 1.5-0.25 0.5q-0.25 0.5-2.25 1t-1-1.75 2-2.5zm-2 14.25q1 0 6.25 5.25l5.25 5.25 1 1.5q1 1.5 1.5 2.5t0 2-2-1-3-4-4.25-5.25-4.25-4.75l-1.5-1.5h1zm4.5-53.75q4.5-0.25 4 0.25t-4.5 1.25-4-0.25v-1l4.5-0.25zm-3.5 10.75q1 0 2.5 1l1.5 1-2-0.5q-2-0.5-2.5-1t0.5-0.5zm-0.5 38.5v-1 2-1zm6.5-155.5l6-0.5v1q0 1-6 1.5t-6-0.5v-1l6-0.5zm-5.75 134l0.25-1.5 0.5 0.5q0.5 0.5 0.75 1.5t-0.75 1-0.75-1.5zm1.5 95.25q0.75-0.75 1.5 0l0.75 0.75h-3l0.75-0.75zm0.75-96.75v-1l1.5 2q1.5 2 1.5 3v1l-1.5-2q-1.5-2-1.5-3zm2 80q1-1 1.25 1t2.25 2.75 4 3.25 0 2-3.75-2.75-1.75-0.25v2l-0.25 3q-0.25 3-1 3t-1.75-1-0.5-6.5 1.5-6.5zm12.75-102.75q0.25-0.25 1.25 2.75t0.75 0.25 0.75-3 1.5 1.75 1.5 2h1l-0.5 2.25q-0.5 2.25-1 1.75t-1.25-0.25-1 1.5-1.75 1.25h-1.5l1.75 1.25q1.75 1.25 2 2.25t1.25 1 0.75 1-0.25 3.5v2.5l0.5-0.5q0.5-0.5 1.25-3t4.75-1.75 4.5 1.25-1.5 1.5 1 0.5 5-1.25 2.75 0.75 1 1.75 1.75 0.25 2 0.5 4 0.75 3.5-0.75 1.5-0.75 3.25-1 2.75-3.25l1-2 1.5 1.5q1.5 1.5 1.75 2.5t-0.5 1.5-0.5 0.75-1 0-1.5 0.75 1.25 1.75 3 2.25 3.5 2l2 0.5-4 0.5q-4 0.5-2.5 1t-0.5 0.75-2.5 3.25-2.5 2.75-2.5-0.25-1.25-1.25-0.25-3.25 1.75-2.75 2.25-1.25l1-0.5-1.5-0.5q-1.5-0.5-4.25 1.25t-3 3.75-2.75 2.75-3.75 1.5-2 3-2.75 2.5-2.5 2.25-2 2.75-3.25 2-2 2.25l-0.25 1h1q1 0 1 1.5t2.25 0.5 4.25-3 1.75 2.5 2.5 4.5 3.25-3 0.5-3.5 0.25-0.75 2.25-0.25 2.25-0.25-0.25 5.75l-0.5 6-0.5-3.5q-0.5-3.5-1.5 1.5t-1.5 2-2.25 0.25-3 3-0.5-2.25-0.25-2-1.75 1.5-1.5 2.25-1.25 0.25-0.25-0.75 0.5-1.25-1.25-0.25-5.5 0.75h-4l-4.5-2q-4.5-2-6-3.5t-3.75-2.25-4.25-4.75-2.5-3l-0.5 1 0.5-6q0.5-6 2.25-4.75t3.25 1.25h1.5l-0.5-0.5q-0.5-0.5-1.5-0.75t-0.25-2.75 0.75-3-0.5-1.5-0.75-3 2-3 3.5-2.25-2.5-3-4-2 1-1-1-2.5 1.75-2.75 4.25-1.25 1-3.25-0.25-2.75-3.5 0.25h-2.5l4-2q4-2 4.25-2.25zm-12.25 121.25q1 0 2 1l1 1-1.5-0.5q-1.5-0.5-2-1l-0.5-0.5h1zm1.5-134h1.5-3 1.5zm2.5 11.75q3-1.25 3-0.25t-3 1.25l-3 0.25 3-1.25zm-1 24.25h2-4 2zm1 55.75q1-0.25 1.25 1.75l0.25 2-1.25-1.75q-1.25-1.75-0.25-2zm4.5 17.25q5.5 0 4.5 0.5l-1 0.5 1 1q1 1-0.5 1.5t0.5 2.5 0.5 1.5-4.5-3-4.5-3.5 4-1zm-1-39.5zm0.5 48.5h1-2 1zm1.5 2v-1.5 3-1.5zm1.75-41q-1.25-4.5 0.25-3.75t1.75 1 1.75 5.75 1 6.5-2-2l-1.5-3-1.25-4.5zm1 41q0.25-1.5 1-0.25l0.75 1.25 2.5 2.5q2.5 2.5 0 2t-4.5-2-1-1.75 1.25-1.75zm1.25-28q0-2.5 0.5-2t1 2l0.5 1.5 0.5 1q0.5 1 0 2t-1.5-0.5-1-4zm8-171h4.5l4 0.75q4 0.75 4 1.75t-2.5 0.25-10-1.25l-7.5-0.5 1.5-0.5q1.5-0.5 6-0.5zm-7 191.5zm1 1zm17-174.5q2.5 0 3.5 1t-3 1h-17l7-1q7-1 9.5-1zm-15.25 144.5q-1.25-5 0-4.5t1.75 2.5l0.5 2-0.5 2.5q-0.5 2.5-1.75-2.5zm-0.25 31.25q1-0.25 0.5 0.5t-1 0.25l-0.5-0.5 1-0.25zm15.25-129.25q-0.25-1 5.75-0.25t8 1.75-1.5 1.5 0.5 1.75 3.75 2.75 1 2.25 4.25 2.75 3.25 2.25 0.5 1.25-2 0-2.5-1.25-3.75-1.25-6-1h-2.5l4.5 1.5q4.5 1.5 6.5 3l2 1.5-3-0.5q-3-0.5-4-1t-3-0.75-2 0.75 3 1.75 6 2.25 3.5 2 1.5 0.75 1.5 3.25-1 3.75-2 1.25-1 0 0.75-2.25 1-2l-0.25-0.25-2.5 0.5q-2.5 0.5-2.75 0.75t-1-0.5-1.5 0-0.5-0.5-0.75-1.75-4 0-4 1-2.5 0.25-2.25 1.25-2 2.75-2.25 1.5-1.5-0.5-3.5 0.25-2-0.5-1-1.5-2.25-0.25-0.5-2.5 0.75-1.25 1.5 0.5-0.25-1.75-0.25-3.75 1-3 1.75 3.25 1.5 4 0.75-6.25 2-2.5l1.5 4-0.5-4.5q-0.5-4.5-1.25-8t1.75-3 3 2.75 0.75 2 0-3.25 2.5-3 2.5-0.25-2.5-1.5-2.5-2.25zm-13.25 113q-0.5-4 0-3l0.5 1 0.5 4q0.5 4 0 3l-0.5-1-0.5-4zm4.5-173.5h3.5l2.5 0.25q2.5 0.25 2 1t-6-0.25-2-1zm-0.5 54.5q3-0.5 2.5 0t-3 0.5h-2.5l3-0.5zm-2 115.5q1 0 1.75 0.75l0.75 0.75 0.5 2q0.5 2 0 4.5t-2.25-2.75-0.75-5.25zm0 24q1 0 1.25 0.25t0.25 1.25v1l-1.25-1.25-1.25-1.25h1zm4-190h4l3.25 0.75q3.25 0.75 3.5 1.75t-3.25 1-3.5-1-4-1.75 0-0.75zm-3.5 182.5zm4.25-177.25q3.75-0.75 4-0.5t3.5 1.5 3 1.5-3.75-0.25l-3.5-0.5-3.5-0.5q-3.5-0.5 0.25-1.25zm-2.25 146.5q1.5-0.25 1.25 1.75l-0.25 2-1.25-1.75q-1.25-1.75 0.25-2zm3 27.25l1-1.5-0.5 2q-0.5 2-1.5 3l-1 1 0.5-1.5q0.5-1.5 1.5-3zm-0.5 7q2-0.5 2.5 2.75t-0.5 3.5l-1 0.25-0.75-1.5q-0.75-1.5-1.25-2t-0.75-1.5 1.75-1.5zm1-199q2 0 3.5 1t2.25 1.75 0 1l-0.75 0.25-3.5-2q-3.5-2-1.5-2zm0 106.5l1.5-1-0.5 2q-0.5 2-1.5 1t0.5-2zm-0.5 66q-1-3 0.5-1t2 3l0.5 1 0.25 0.25q0.25 0.25-1 0t-2.25-3.25zm5.5-135l6-0.5h1.5q1.5 0 1.75 0.25t0.5 1.25-1.25 0.75-8-0.75l-6.5-0.5 6-0.5zm-3.5-46.5q1.5 0 3.5 1.5l2 1.5-2.5-0.5q-2.5-0.5-3.5-1.5l-1-1h1.5zm11.5 53.5q4-0.5 4.5 0t-3 1l-3.5 0.5-5.5 0.5-5.5 0.5 4.5-1q4.5-1 8.5-1.5zm-12.25 102.75q0.75-0.75 1 0.25t-0.75 0.75l-1-0.25 0.75-0.75zm-0.5 20.25q-0.25-2 0.75-2t0.75 3l-0.25 3-0.5-1q-0.5-1-0.75-3zm1 28.25l1.25-1.25-0.25 1.25q-0.25 1.25-1.25 1.25h-1l1.25-1.25zm3.25-198.75q1.5 0 1.75 0.25t0.5 1.75l0.25 1.5-1.5-0.75q-1.5-0.75-2.25-1.5t-0.5-1 1.75-0.25zm1 184.5q0-2 0.5-1.5t0.5 4v3.5l-1.5 2q-1.5 2-1 0t1-4 0.5-4zm2-152.75l3.5-0.25-0.5 1.75q-0.5 1.75-2.5 1.5t-2-1.25-1-1.25 2.5-0.5zm3.5 75q1-0.25 1 0.75t1 1.25-0.5 0.5-2 1.5-2.5 1.75-2.75-0.75 0.5-2l1.25-0.75 1.5-1q1.5-1 2.5-1.25zm-6.25 88.5q0.75-0.75 1 0.25t-0.75 0.75l-1-0.25 0.75-0.75zm1 4.75q0.75-1.5 1.25-1t0.75 1.5l0.25 1h-3l0.75-1.5zm3.75-163.25l3.5-0.25v1q0 1-3.5 0.25t0-1zm10 20.25q3.5 0-4.5 1.5t-7.5 1 4.5-1.5l4-1h3.5zm-11.5 123l0.5-0.5 0.75 2.5q0.75 2.5-0.25 2.5t-1.25-2 0.25-2.5zm9-126q5 0 2 0.5l-3 0.5-3.25 0.75q-3.25 0.75-3.5-0.25t1.25-1.25 6.5-0.25zm-7.5 116v-1.5l0.5 0.5q0.5 0.5 0.5 2v1.5l-0.5-0.5q-0.5-0.5-0.5-2zm0 7.5v-1l0.5 0.5q0.5 0.5 0.5 1.5v1l-0.5-0.5q-0.5-0.5-0.5-1.5zm0 11.5v-1.5 3-1.5zm4.5 3q0.5-1.5 0 1.5t-1 3.5-0.75 1.5-1.25 1-0.75-1l0.25-1 1.5-2q1.5-2 2-3.5zm5-131.5q3-0.5 2 0l-1 0.5-1.5 0.5q-1.5 0.5-2 0t2.5-1zm-7 126l0.5-1-0.5 1.5q-0.5 1.5-0.5 1t0.5-1.5zm-0.5 21q0-5 0.5-4.5t1 4l0.5 3.5-0.5 2q-0.5 2-1 1t-0.5-6zm10-157l-0.5-0.5 0.5 0.5q0.5 0.5 0 0zm-8.75 120.5l-0.25-2.5 1 1.5q1 1.5 1.25 2.5t-0.75 1-1.25-2.5zm6.25-35.25q2-0.25 1.75 0.75l-0.25 1-1.25 0.75q-1.25 0.75-3.75 1.5t-1.75-0.75 2-2.25 3.25-1zm-0.5 7q4.5-0.25 4 1.75t-2 1.75-4-0.75-2.75-1.25 0-1l0.25-0.25 4.5-0.25zm-2.5-98.75h2-4 2zm-0.5 135.5v-1 2-1zm0.5 1.5q0.5-0.5 1 0.5l0.5 1-0.5 2q-0.5 2-1-0.5t0-3zm4-70q3-0.5 3 1t-3 2.75l-3 1.25-0.25 0.25q-0.25 0.25 0-2.25t3.25-3zm-3.5 59.5v-1l2.25 1.75 2.25 1.75-2-0.5q-2-0.5-2.25-0.75t-0.25-1.25zm1.75 22.5l1.25-3.5 0.5 3.5q0.5 3.5 0 4l-0.5 0.5-0.25-0.25q-0.25-0.25-1.25-0.5t0.25-3.75zm0.25-91.5zm0.5 74.5q1 0 1.75 0.75l0.75 0.75-0.5 1.5q-0.5 1.5-1.75-0.75t-0.25-2.25zm5-107h3-6 3zm-2 105h1-2 1zm1 11.75l1-0.25 0.25 4q0.25 4-0.25 4.5l-0.5 0.5-1-3q-1-3-0.75-4.25t1.25-1.5zm0.25-9.25l-0.25-2 1.5 0.75q1.5 0.75 1.25 1.5t-0.25 1.25-0.75 0.75-1 0-0.5-2.25zm4.75 1q-0.5-4 0.5-3t1.25 4.75 0 3.5 0.25 3.25 1 4 0 1.5-2-1.5-2-6l-0.5-3.5 0.5-0.5q0.5-0.5 1 0.5t0-3zm1 40.5q1 0 1.25 0.25t-0.25 0.75-1.25-0.25l-0.75-0.75h1zm1-113l0.5-1.5-0.5 1.5-0.5 1.5 0.5-1.5zm11 32.75q1-0.25 0.25 1.75t-1 2.25l-0.25 0.25-4 0.25q-4 0.25-3.5-0.5t3.5-0.5 3-0.75 0.75-1.5 0.5-0.75 0.75-0.5zm-8 79q1-0.25 0.5 0.5t-1 0.25l-0.5-0.5 1-0.25zm0.5-97.25zm2 55zm11-110.5q5.5 0 1.5 0.25t-3.5 1.5l0.5 1.25 0.5 0.5q0.5 0.5-2 0t-4.75-1.25-2-1 2.25-0.75 7.5-0.5zm-1.5 6h2-4 2z"/>
  <path d="m65.5 210v-1 2-1z"/>
 </g>
</svg>
